solid base prototype
facet normal 0.0 0.0 -1.0
outer loop
vertex 14.0 17.0 -10.0
vertex -25.0 0.0 -10.0
vertex -25.0 17.0 -10.0
endloop
endfacet
facet normal 0.0 0.0 -1.0
outer loop
vertex -25.0 0.0 -10.0
vertex 14.0 17.0 -10.0
vertex 14.0 0.0 -10.0
endloop
endfacet
facet normal -0.0 -0.0 1.0
outer loop
vertex 14.0 0.0 6.0
vertex 0.0 17.0 6.0
vertex 0.0 0.0 6.0
endloop
endfacet
facet normal -0.0 -0.0 1.0
outer loop
vertex 0.0 17.0 6.0
vertex 14.0 0.0 6.0
vertex 14.0 17.0 6.0
endloop
endfacet
facet normal -0.0 1.0 -0.0
outer loop
vertex -25.0 17.0 -10.0
vertex -15.0 17.0 -8.0
vertex 14.0 17.0 -10.0
endloop
endfacet
facet normal -0.0 1.0 -0.0
outer loop
vertex -15.0 17.0 -8.0
vertex -25.0 17.0 -10.0
vertex -25.0 17.0 0.0
endloop
endfacet
facet normal -0.0 1.0 -0.0
outer loop
vertex -15.0 17.0 -8.0
vertex -25.0 17.0 0.0
vertex -15.0 17.0 0.0
endloop
endfacet
facet normal -0.0 1.0 -0.0
outer loop
vertex 14.0 17.0 -10.0
vertex 0.0 17.0 -8.0
vertex 14.0 17.0 0.0
endloop
endfacet
facet normal -0.0 1.0 -0.0
outer loop
vertex 0.0 17.0 -8.0
vertex 14.0 17.0 -10.0
vertex -15.0 17.0 -8.0
endloop
endfacet
facet normal -0.0 1.0 -0.0
outer loop
vertex 14.0 17.0 0.0
vertex 0.0 17.0 -8.0
vertex 0.0 17.0 0.0
endloop
endfacet
facet normal 1.0 -0.0 -0.0
outer loop
vertex 14.0 17.0 -10.0
vertex 14.0 0.0 0.0
vertex 14.0 0.0 -10.0
endloop
endfacet
facet normal 1.0 -0.0 -0.0
outer loop
vertex 14.0 0.0 0.0
vertex 14.0 17.0 -10.0
vertex 14.0 17.0 0.0
endloop
endfacet
facet normal 0.0 -1.0 0.0
outer loop
vertex 14.0 0.0 6.0
vertex 0.0 0.0 0.0
vertex 14.0 0.0 0.0
endloop
endfacet
facet normal 0.0 -1.0 0.0
outer loop
vertex 0.0 0.0 0.0
vertex 14.0 0.0 6.0
vertex 0.0 0.0 6.0
endloop
endfacet
facet normal 1.0 -0.0 -0.0
outer loop
vertex 14.0 17.0 0.0
vertex 14.0 0.0 6.0
vertex 14.0 0.0 0.0
endloop
endfacet
facet normal 1.0 -0.0 -0.0
outer loop
vertex 14.0 0.0 6.0
vertex 14.0 17.0 0.0
vertex 14.0 17.0 6.0
endloop
endfacet
facet normal 0.0 -1.0 0.0
outer loop
vertex 14.0 0.0 -10.0
vertex 0.0 0.0 -8.0
vertex -25.0 0.0 -10.0
endloop
endfacet
facet normal 0.0 -1.0 0.0
outer loop
vertex 0.0 0.0 -8.0
vertex 14.0 0.0 -10.0
vertex 14.0 0.0 0.0
endloop
endfacet
facet normal 0.0 -1.0 0.0
outer loop
vertex 0.0 0.0 -8.0
vertex 14.0 0.0 0.0
vertex 0.0 0.0 0.0
endloop
endfacet
facet normal 0.0 -1.0 0.0
outer loop
vertex -25.0 0.0 -10.0
vertex -15.0 0.0 -8.0
vertex -25.0 0.0 0.0
endloop
endfacet
facet normal 0.0 -1.0 0.0
outer loop
vertex -15.0 0.0 -8.0
vertex -25.0 0.0 -10.0
vertex 0.0 0.0 -8.0
endloop
endfacet
facet normal 0.0 -1.0 0.0
outer loop
vertex -25.0 0.0 0.0
vertex -15.0 0.0 -8.0
vertex -15.0 0.0 0.0
endloop
endfacet
facet normal -1.0 0.0 0.0
outer loop
vertex 0.0 17.0 6.0
vertex 0.0 0.0 0.0
vertex 0.0 0.0 6.0
endloop
endfacet
facet normal -1.0 0.0 0.0
outer loop
vertex 0.0 0.0 0.0
vertex 0.0 17.0 6.0
vertex 0.0 17.0 0.0
endloop
endfacet
facet normal -1.0 0.0 0.0
outer loop
vertex -25.0 17.0 0.0
vertex -25.0 0.0 -10.0
vertex -25.0 0.0 0.0
endloop
endfacet
facet normal -1.0 0.0 0.0
outer loop
vertex -25.0 0.0 -10.0
vertex -25.0 17.0 0.0
vertex -25.0 17.0 -10.0
endloop
endfacet
facet normal -0.0 -0.0 1.0
outer loop
vertex -15.0 0.0 0.0
vertex -25.0 17.0 0.0
vertex -25.0 0.0 0.0
endloop
endfacet
facet normal -0.0 -0.0 1.0
outer loop
vertex -25.0 17.0 0.0
vertex -15.0 0.0 0.0
vertex -15.0 17.0 0.0
endloop
endfacet
facet normal 0.0 0.0 1.0
outer loop
vertex 0.0 0.0 -8.0
vertex -15.0 17.0 -8.0
vertex -15.0 0.0 -8.0
endloop
endfacet
facet normal 0.0 0.0 1.0
outer loop
vertex -15.0 17.0 -8.0
vertex 0.0 0.0 -8.0
vertex 0.0 17.0 -8.0
endloop
endfacet
facet normal 1.0 0.0 0.0
outer loop
vertex -15.0 17.0 -8.0
vertex -15.0 0.0 0.0
vertex -15.0 0.0 -8.0
endloop
endfacet
facet normal 1.0 0.0 0.0
outer loop
vertex -15.0 0.0 0.0
vertex -15.0 17.0 -8.0
vertex -15.0 17.0 0.0
endloop
endfacet
facet normal -1.0 0.0 -0.0
outer loop
vertex 0.0 17.0 0.0
vertex 0.0 0.0 -8.0
vertex 0.0 0.0 0.0
endloop
endfacet
facet normal -1.0 0.0 -0.0
outer loop
vertex 0.0 0.0 -8.0
vertex 0.0 17.0 0.0
vertex 0.0 17.0 -8.0
endloop
endfacet
facet normal -0.0 1.0 -0.0
outer loop
vertex 0.0 17.0 6.0
vertex 14.0 17.0 0.0
vertex 0.0 17.0 0.0
endloop
endfacet
facet normal -0.0 1.0 -0.0
outer loop
vertex 14.0 17.0 0.0
vertex 0.0 17.0 6.0
vertex 14.0 17.0 6.0
endloop
endfacet
facet normal 0.0 0.0 -1.0
outer loop
vertex 14.0 17.0 0.0
vertex 0.0 0.0 0.0
vertex 0.0 17.0 0.0
endloop
endfacet
facet normal 0.0 0.0 -1.0
outer loop
vertex 0.0 0.0 0.0
vertex 14.0 17.0 0.0
vertex 14.0 0.0 0.0
endloop
endfacet
endsolid base prototype
