solid pressure base male
facet normal -0.0 -1.0 -0.0
outer loop
vertex 7.5 4.5 8.0
vertex 6.0 4.5 2.8199664825479e-15
vertex 7.5 4.5 2.8199664825479e-15
endloop
endfacet
facet normal -0.0 -1.0 -0.0
outer loop
vertex 6.0 4.5 2.8199664825479e-15
vertex 7.5 4.5 8.0
vertex 6.0 4.5 8.0
endloop
endfacet
facet normal -1.0 0.0 0.0
outer loop
vertex 0.0 15.0 6.0
vertex 0.0 0.0 0.0
vertex 0.0 0.0 6.0
endloop
endfacet
facet normal -1.0 0.0 0.0
outer loop
vertex 0.0 0.0 0.0
vertex 0.0 15.0 6.0
vertex 0.0 15.0 0.0
endloop
endfacet
facet normal 1.0 0.0 0.0
outer loop
vertex 6.0 4.5 2.8199664825479e-15
vertex 6.0 3.0 8.0
vertex 6.0 3.0 2.8199664825479e-15
endloop
endfacet
facet normal 1.0 0.0 0.0
outer loop
vertex 6.0 3.0 8.0
vertex 6.0 4.5 2.8199664825479e-15
vertex 6.0 4.5 8.0
endloop
endfacet
facet normal 0.0 0.0 1.0
outer loop
vertex 0.0 0.0 6.0
vertex 5.2 2.2 6.0
vertex 0.0 15.0 6.0
endloop
endfacet
facet normal 0.0 0.0 1.0
outer loop
vertex 5.2 2.2 6.0
vertex 0.0 0.0 6.0
vertex 15.0 0.0 6.0
endloop
endfacet
facet normal 0.0 0.0 1.0
outer loop
vertex 5.2 2.2 6.0
vertex 15.0 0.0 6.0
vertex 9.3 2.2 6.0
endloop
endfacet
facet normal 0.0 0.0 1.0
outer loop
vertex 9.3 2.2 6.0
vertex 15.0 0.0 6.0
vertex 9.3 6.3 6.0
endloop
endfacet
facet normal 0.0 0.0 1.0
outer loop
vertex 9.3 6.3 6.0
vertex 15.0 0.0 6.0
vertex 9.3 9.2 6.0
endloop
endfacet
facet normal 0.0 0.0 1.0
outer loop
vertex 9.3 9.2 6.0
vertex 15.0 0.0 6.0
vertex 9.3 13.3 6.0
endloop
endfacet
facet normal 0.0 0.0 1.0
outer loop
vertex 0.0 15.0 6.0
vertex 5.2 13.3 6.0
vertex 15.0 15.0 6.0
endloop
endfacet
facet normal 0.0 0.0 1.0
outer loop
vertex 5.2 13.3 6.0
vertex 0.0 15.0 6.0
vertex 5.2 2.2 6.0
endloop
endfacet
facet normal 0.0 0.0 1.0
outer loop
vertex 5.2 13.3 6.0
vertex 5.2 2.2 6.0
vertex 5.2 6.3 6.0
endloop
endfacet
facet normal 0.0 0.0 1.0
outer loop
vertex 5.2 13.3 6.0
vertex 5.2 6.3 6.0
vertex 5.2 9.2 6.0
endloop
endfacet
facet normal 0.0 0.0 1.0
outer loop
vertex 15.0 15.0 6.0
vertex 5.2 13.3 6.0
vertex 9.3 13.3 6.0
endloop
endfacet
facet normal 0.0 0.0 1.0
outer loop
vertex 15.0 15.0 6.0
vertex 9.3 13.3 6.0
vertex 15.0 0.0 6.0
endloop
endfacet
facet normal 0.0 0.0 1.0
outer loop
vertex 9.3 6.3 6.0
vertex 5.2 9.2 6.0
vertex 5.2 6.3 6.0
endloop
endfacet
facet normal 0.0 0.0 1.0
outer loop
vertex 5.2 9.2 6.0
vertex 9.3 6.3 6.0
vertex 9.3 9.2 6.0
endloop
endfacet
facet normal 1.0 0.0 0.0
outer loop
vertex 6.0 12.5 0.0
vertex 6.0 11.0 8.0
vertex 6.0 11.0 0.0
endloop
endfacet
facet normal 1.0 0.0 0.0
outer loop
vertex 6.0 11.0 8.0
vertex 6.0 12.5 0.0
vertex 6.0 12.5 8.0
endloop
endfacet
facet normal -0.0 -1.0 -0.0
outer loop
vertex 7.5 12.5 8.0
vertex 6.0 12.5 0.0
vertex 7.5 12.5 0.0
endloop
endfacet
facet normal -0.0 -1.0 -0.0
outer loop
vertex 6.0 12.5 0.0
vertex 7.5 12.5 8.0
vertex 6.0 12.5 8.0
endloop
endfacet
facet normal -1.0 0.0 0.0
outer loop
vertex 7.5 12.5 8.0
vertex 7.5 11.0 0.0
vertex 7.5 11.0 8.0
endloop
endfacet
facet normal -1.0 0.0 0.0
outer loop
vertex 7.5 11.0 0.0
vertex 7.5 12.5 8.0
vertex 7.5 12.5 0.0
endloop
endfacet
facet normal -0.0 -1.0 -0.0
outer loop
vertex 9.3 2.2 8.0
vertex 5.2 2.2 6.0
vertex 9.3 2.2 6.0
endloop
endfacet
facet normal -0.0 -1.0 -0.0
outer loop
vertex 5.2 2.2 6.0
vertex 9.3 2.2 8.0
vertex 5.2 2.2 8.0
endloop
endfacet
facet normal 0.0 1.0 0.0
outer loop
vertex 6.0 3.0 8.0
vertex 7.5 3.0 2.8199664825479e-15
vertex 6.0 3.0 2.8199664825479e-15
endloop
endfacet
facet normal 0.0 1.0 0.0
outer loop
vertex 7.5 3.0 2.8199664825479e-15
vertex 6.0 3.0 8.0
vertex 7.5 3.0 8.0
endloop
endfacet
facet normal -1.0 1.76247905159244e-16 0.0
outer loop
vertex 5.2 6.3 8.0
vertex 5.2 2.2 6.0
vertex 5.2 2.2 8.0
endloop
endfacet
facet normal -1.0 1.76247905159244e-16 0.0
outer loop
vertex 5.2 2.2 6.0
vertex 5.2 6.3 8.0
vertex 5.2 6.3 6.0
endloop
endfacet
facet normal -1.0 0.0 0.0
outer loop
vertex 7.5 4.5 8.0
vertex 7.5 3.0 2.8199664825479e-15
vertex 7.5 3.0 8.0
endloop
endfacet
facet normal -1.0 0.0 0.0
outer loop
vertex 7.5 3.0 2.8199664825479e-15
vertex 7.5 4.5 8.0
vertex 7.5 4.5 2.8199664825479e-15
endloop
endfacet
facet normal 0.0 0.0 1.0
outer loop
vertex 5.2 2.2 8.0
vertex 6.0 3.0 8.0
vertex 5.2 6.3 8.0
endloop
endfacet
facet normal 0.0 0.0 1.0
outer loop
vertex 6.0 3.0 8.0
vertex 5.2 2.2 8.0
vertex 9.3 2.2 8.0
endloop
endfacet
facet normal 0.0 0.0 1.0
outer loop
vertex 6.0 3.0 8.0
vertex 9.3 2.2 8.0
vertex 7.5 3.0 8.0
endloop
endfacet
facet normal 0.0 0.0 1.0
outer loop
vertex 7.5 3.0 8.0
vertex 9.3 2.2 8.0
vertex 7.5 4.5 8.0
endloop
endfacet
facet normal 0.0 0.0 1.0
outer loop
vertex 5.2 6.3 8.0
vertex 6.0 4.5 8.0
vertex 9.3 6.3 8.0
endloop
endfacet
facet normal 0.0 0.0 1.0
outer loop
vertex 6.0 4.5 8.0
vertex 5.2 6.3 8.0
vertex 6.0 3.0 8.0
endloop
endfacet
facet normal 0.0 0.0 1.0
outer loop
vertex 9.3 6.3 8.0
vertex 6.0 4.5 8.0
vertex 7.5 4.5 8.0
endloop
endfacet
facet normal 0.0 0.0 1.0
outer loop
vertex 9.3 6.3 8.0
vertex 7.5 4.5 8.0
vertex 9.3 2.2 8.0
endloop
endfacet
facet normal 1.0 0.0 0.0
outer loop
vertex 15.0 15.0 0.0
vertex 15.0 0.0 6.0
vertex 15.0 0.0 0.0
endloop
endfacet
facet normal 1.0 0.0 0.0
outer loop
vertex 15.0 0.0 6.0
vertex 15.0 15.0 0.0
vertex 15.0 15.0 6.0
endloop
endfacet
facet normal 1.40998324127395e-15 1.0 0.0
outer loop
vertex 6.0 11.0 8.0
vertex 7.5 11.0 0.0
vertex 6.0 11.0 0.0
endloop
endfacet
facet normal 1.40998324127395e-15 1.0 0.0
outer loop
vertex 7.5 11.0 0.0
vertex 6.0 11.0 8.0
vertex 7.5 11.0 8.0
endloop
endfacet
facet normal 0.0 1.0 0.0
outer loop
vertex 0.0 15.0 6.0
vertex 15.0 15.0 0.0
vertex 0.0 15.0 0.0
endloop
endfacet
facet normal 0.0 1.0 0.0
outer loop
vertex 15.0 15.0 0.0
vertex 0.0 15.0 6.0
vertex 15.0 15.0 6.0
endloop
endfacet
facet normal -0.0 -1.0 -0.0
outer loop
vertex 15.0 0.0 6.0
vertex 0.0 0.0 0.0
vertex 15.0 0.0 0.0
endloop
endfacet
facet normal -0.0 -1.0 -0.0
outer loop
vertex 0.0 0.0 0.0
vertex 15.0 0.0 6.0
vertex 0.0 0.0 6.0
endloop
endfacet
facet normal 0.0 0.0 1.0
outer loop
vertex 5.2 9.2 8.0
vertex 6.0 11.0 8.0
vertex 5.2 13.3 8.0
endloop
endfacet
facet normal 0.0 0.0 1.0
outer loop
vertex 6.0 11.0 8.0
vertex 5.2 9.2 8.0
vertex 9.3 9.2 8.0
endloop
endfacet
facet normal 0.0 0.0 1.0
outer loop
vertex 5.2 13.3 8.0
vertex 6.0 11.0 8.0
vertex 6.0 12.5 8.0
endloop
endfacet
facet normal 0.0 0.0 1.0
outer loop
vertex 6.0 11.0 8.0
vertex 9.3 9.2 8.0
vertex 7.5 11.0 8.0
endloop
endfacet
facet normal 0.0 0.0 1.0
outer loop
vertex 6.0 12.5 8.0
vertex 9.3 13.3 8.0
vertex 5.2 13.3 8.0
endloop
endfacet
facet normal 0.0 0.0 1.0
outer loop
vertex 9.3 13.3 8.0
vertex 6.0 12.5 8.0
vertex 7.5 12.5 8.0
endloop
endfacet
facet normal 0.0 0.0 1.0
outer loop
vertex 9.3 13.3 8.0
vertex 7.5 12.5 8.0
vertex 7.5 11.0 8.0
endloop
endfacet
facet normal 0.0 0.0 1.0
outer loop
vertex 9.3 13.3 8.0
vertex 7.5 11.0 8.0
vertex 9.3 9.2 8.0
endloop
endfacet
facet normal 0.0 1.0 0.0
outer loop
vertex 5.2 6.3 8.0
vertex 9.3 6.3 6.0
vertex 5.2 6.3 6.0
endloop
endfacet
facet normal 0.0 1.0 0.0
outer loop
vertex 9.3 6.3 6.0
vertex 5.2 6.3 8.0
vertex 9.3 6.3 8.0
endloop
endfacet
facet normal 1.0 0.0 0.0
outer loop
vertex 9.3 6.3 6.0
vertex 9.3 2.2 8.0
vertex 9.3 2.2 6.0
endloop
endfacet
facet normal 1.0 0.0 0.0
outer loop
vertex 9.3 2.2 8.0
vertex 9.3 6.3 6.0
vertex 9.3 6.3 8.0
endloop
endfacet
facet normal 0.0 0.0 -1.0
outer loop
vertex 6.0 4.5 2.8199664825479e-15
vertex 6.0 11.0 0.0
vertex 7.5 4.5 2.8199664825479e-15
endloop
endfacet
facet normal 0.0 0.0 -1.0
outer loop
vertex 6.0 11.0 0.0
vertex 6.0 4.5 2.8199664825479e-15
vertex 6.0 12.5 0.0
endloop
endfacet
facet normal 0.0 0.0 -1.0
outer loop
vertex 7.5 4.5 2.8199664825479e-15
vertex 6.0 11.0 0.0
vertex 7.5 11.0 0.0
endloop
endfacet
facet normal 0.0 0.0 -1.0
outer loop
vertex 7.5 4.5 2.8199664825479e-15
vertex 7.5 11.0 0.0
vertex 7.5 3.0 2.8199664825479e-15
endloop
endfacet
facet normal 0.0 0.0 -1.0
outer loop
vertex 0.0 15.0 0.0
vertex 6.0 12.5 0.0
vertex 0.0 0.0 0.0
endloop
endfacet
facet normal 0.0 0.0 -1.0
outer loop
vertex 6.0 12.5 0.0
vertex 0.0 15.0 0.0
vertex 15.0 15.0 0.0
endloop
endfacet
facet normal 0.0 0.0 -1.0
outer loop
vertex 0.0 0.0 0.0
vertex 6.0 12.5 0.0
vertex 6.0 4.5 2.8199664825479e-15
endloop
endfacet
facet normal 0.0 0.0 -1.0
outer loop
vertex 6.0 12.5 0.0
vertex 15.0 15.0 0.0
vertex 7.5 12.5 0.0
endloop
endfacet
facet normal 0.0 0.0 -1.0
outer loop
vertex 7.5 12.5 0.0
vertex 15.0 15.0 0.0
vertex 7.5 11.0 0.0
endloop
endfacet
facet normal 0.0 0.0 -1.0
outer loop
vertex 0.0 0.0 0.0
vertex 6.0 3.0 2.8199664825479e-15
vertex 15.0 0.0 0.0
endloop
endfacet
facet normal 0.0 0.0 -1.0
outer loop
vertex 6.0 3.0 2.8199664825479e-15
vertex 0.0 0.0 0.0
vertex 6.0 4.5 2.8199664825479e-15
endloop
endfacet
facet normal 0.0 0.0 -1.0
outer loop
vertex 15.0 0.0 0.0
vertex 6.0 3.0 2.8199664825479e-15
vertex 7.5 3.0 2.8199664825479e-15
endloop
endfacet
facet normal 0.0 0.0 -1.0
outer loop
vertex 15.0 0.0 0.0
vertex 7.5 3.0 2.8199664825479e-15
vertex 7.5 11.0 0.0
endloop
endfacet
facet normal 0.0 0.0 -1.0
outer loop
vertex 15.0 0.0 0.0
vertex 7.5 11.0 0.0
vertex 15.0 15.0 0.0
endloop
endfacet
facet normal 1.0 0.0 0.0
outer loop
vertex 9.3 13.3 6.0
vertex 9.3 9.2 8.0
vertex 9.3 9.2 6.0
endloop
endfacet
facet normal 1.0 0.0 0.0
outer loop
vertex 9.3 9.2 8.0
vertex 9.3 13.3 6.0
vertex 9.3 13.3 8.0
endloop
endfacet
facet normal -0.0 -1.0 -0.0
outer loop
vertex 9.3 9.2 8.0
vertex 5.2 9.2 6.0
vertex 9.3 9.2 6.0
endloop
endfacet
facet normal -0.0 -1.0 -0.0
outer loop
vertex 5.2 9.2 6.0
vertex 9.3 9.2 8.0
vertex 5.2 9.2 8.0
endloop
endfacet
facet normal 0.0 1.0 0.0
outer loop
vertex 5.2 13.3 8.0
vertex 9.3 13.3 6.0
vertex 5.2 13.3 6.0
endloop
endfacet
facet normal 0.0 1.0 0.0
outer loop
vertex 9.3 13.3 6.0
vertex 5.2 13.3 8.0
vertex 9.3 13.3 8.0
endloop
endfacet
facet normal -1.0 -0.0 -0.0
outer loop
vertex 5.2 13.3 8.0
vertex 5.2 9.2 6.0
vertex 5.2 9.2 8.0
endloop
endfacet
facet normal -1.0 -0.0 -0.0
outer loop
vertex 5.2 9.2 6.0
vertex 5.2 13.3 8.0
vertex 5.2 13.3 6.0
endloop
endfacet
endsolid pressure base male
