solid rod with screw hole
facet normal 1.0 0.0 0.0
outer loop
vertex 33.0 9.99999999999999 3.0
vertex 33.0 6.57712014026543e-34 7.00000000000001
vertex 33.0 6.57712014026543e-34 3.0
endloop
endfacet
facet normal 1.0 0.0 0.0
outer loop
vertex 33.0 6.57712014026543e-34 7.00000000000001
vertex 33.0 9.99999999999999 3.0
vertex 33.0 9.99999999999999 7.00000000000001
endloop
endfacet
facet normal -1.0 0.0 0.0
outer loop
vertex 37.5 9.99999999999999 7.00000000000001
vertex 37.5 6.57712014026543e-34 3.0
vertex 37.5 6.57712014026543e-34 7.00000000000001
endloop
endfacet
facet normal -1.0 0.0 0.0
outer loop
vertex 37.5 6.57712014026543e-34 3.0
vertex 37.5 9.99999999999999 7.00000000000001
vertex 37.5 9.99999999999999 3.0
endloop
endfacet
facet normal 6.53598338845231e-37 -1.0 6.59241741136455e-35
outer loop
vertex 50.0 0.0 0.0
vertex 37.5 6.57712014026543e-34 3.0
vertex 0.0 0.0 0.0
endloop
endfacet
facet normal 6.53598338845231e-37 -1.0 6.59241741136455e-35
outer loop
vertex 37.5 6.57712014026543e-34 3.0
vertex 50.0 0.0 0.0
vertex 50.0 6.57712014026543e-34 7.00000000000001
endloop
endfacet
facet normal 6.53598338845231e-37 -1.0 6.59241741136455e-35
outer loop
vertex 37.5 6.57712014026543e-34 3.0
vertex 50.0 6.57712014026543e-34 7.00000000000001
vertex 37.5 6.57712014026543e-34 7.00000000000001
endloop
endfacet
facet normal 6.53598338845231e-37 -1.0 6.59241741136455e-35
outer loop
vertex 33.0 6.57712014026543e-34 7.00000000000001
vertex 18.0 6.57712014026543e-34 3.0
vertex 33.0 6.57712014026543e-34 3.0
endloop
endfacet
facet normal 6.53598338845231e-37 -1.0 6.59241741136455e-35
outer loop
vertex 18.0 6.57712014026543e-34 3.0
vertex 33.0 6.57712014026543e-34 7.00000000000001
vertex 18.0 6.57712014026543e-34 7.00000000000001
endloop
endfacet
facet normal 6.53598338845231e-37 -1.0 6.59241741136455e-35
outer loop
vertex 0.0 0.0 0.0
vertex 13.5 6.57712014026543e-34 3.0
vertex 3.52605706247821e-18 5.84632901356927e-34 7.0
endloop
endfacet
facet normal 6.53598338845231e-37 -1.0 6.59241741136455e-35
outer loop
vertex 13.5 6.57712014026543e-34 3.0
vertex 0.0 0.0 0.0
vertex 37.5 6.57712014026543e-34 3.0
endloop
endfacet
facet normal 6.53598338845231e-37 -1.0 6.59241741136455e-35
outer loop
vertex 13.5 6.57712014026543e-34 3.0
vertex 37.5 6.57712014026543e-34 3.0
vertex 33.0 6.57712014026543e-34 3.0
endloop
endfacet
facet normal 6.53598338845231e-37 -1.0 6.59241741136455e-35
outer loop
vertex 13.5 6.57712014026543e-34 3.0
vertex 33.0 6.57712014026543e-34 3.0
vertex 18.0 6.57712014026543e-34 3.0
endloop
endfacet
facet normal 6.53598338845231e-37 -1.0 6.59241741136455e-35
outer loop
vertex 3.52605706247821e-18 5.84632901356927e-34 7.0
vertex 13.5 6.57712014026543e-34 3.0
vertex 13.5 6.57712014026543e-34 7.00000000000001
endloop
endfacet
facet normal 0.0 1.0 0.0
outer loop
vertex 3.30567849607333e-18 12.0 7.0
vertex 50.0 12.0 0.0
vertex 0.0 12.0 0.0
endloop
endfacet
facet normal 0.0 1.0 0.0
outer loop
vertex 50.0 12.0 0.0
vertex 3.30567849607333e-18 12.0 7.0
vertex 50.0 12.0 7.00000000000001
endloop
endfacet
facet normal 0.0 0.0 1.0
outer loop
vertex 18.0 6.57712014026543e-34 3.0
vertex 13.5 9.99999999999999 3.0
vertex 13.5 6.57712014026543e-34 3.0
endloop
endfacet
facet normal 0.0 0.0 1.0
outer loop
vertex 13.5 9.99999999999999 3.0
vertex 18.0 6.57712014026543e-34 3.0
vertex 18.0 9.99999999999999 3.0
endloop
endfacet
facet normal 0.0 -1.0 0.0
outer loop
vertex 18.0 9.99999999999999 7.00000000000001
vertex 13.5 9.99999999999999 3.0
vertex 18.0 9.99999999999999 3.0
endloop
endfacet
facet normal 0.0 -1.0 0.0
outer loop
vertex 13.5 9.99999999999999 3.0
vertex 18.0 9.99999999999999 7.00000000000001
vertex 13.5 9.99999999999999 7.00000000000001
endloop
endfacet
facet normal -1.46336976496228e-16 3.09697686259269e-17 1.0
outer loop
vertex 33.0 6.57712014026543e-34 7.00000000000001
vertex 18.0 9.99999999999999 7.00000000000001
vertex 18.0 6.57712014026543e-34 7.00000000000001
endloop
endfacet
facet normal -1.46336976496228e-16 3.09697686259269e-17 1.0
outer loop
vertex 50.0 6.57712014026543e-34 7.00000000000001
vertex 37.5 9.99999999999999 7.00000000000001
vertex 37.5 6.57712014026543e-34 7.00000000000001
endloop
endfacet
facet normal -1.46336976496228e-16 3.09697686259269e-17 1.0
outer loop
vertex 3.30567849607333e-18 12.0 7.0
vertex 13.5 9.99999999999999 7.00000000000001
vertex 50.0 12.0 7.00000000000001
endloop
endfacet
facet normal -1.46336976496228e-16 3.09697686259269e-17 1.0
outer loop
vertex 13.5 9.99999999999999 7.00000000000001
vertex 3.30567849607333e-18 12.0 7.0
vertex 3.52605706247821e-18 5.84632901356927e-34 7.0
endloop
endfacet
facet normal -1.46336976496228e-16 3.09697686259269e-17 1.0
outer loop
vertex 13.5 9.99999999999999 7.00000000000001
vertex 3.52605706247821e-18 5.84632901356927e-34 7.0
vertex 13.5 6.57712014026543e-34 7.00000000000001
endloop
endfacet
facet normal -1.46336976496228e-16 3.09697686259269e-17 1.0
outer loop
vertex 50.0 12.0 7.00000000000001
vertex 13.5 9.99999999999999 7.00000000000001
vertex 18.0 9.99999999999999 7.00000000000001
endloop
endfacet
facet normal -1.46336976496228e-16 3.09697686259269e-17 1.0
outer loop
vertex 50.0 12.0 7.00000000000001
vertex 18.0 9.99999999999999 7.00000000000001
vertex 33.0 9.99999999999999 7.00000000000001
endloop
endfacet
facet normal -1.46336976496228e-16 3.09697686259269e-17 1.0
outer loop
vertex 33.0 9.99999999999999 7.00000000000001
vertex 18.0 9.99999999999999 7.00000000000001
vertex 33.0 6.57712014026543e-34 7.00000000000001
endloop
endfacet
facet normal -1.46336976496228e-16 3.09697686259269e-17 1.0
outer loop
vertex 50.0 12.0 7.00000000000001
vertex 33.0 9.99999999999999 7.00000000000001
vertex 37.5 9.99999999999999 7.00000000000001
endloop
endfacet
facet normal -1.46336976496228e-16 3.09697686259269e-17 1.0
outer loop
vertex 50.0 12.0 7.00000000000001
vertex 37.5 9.99999999999999 7.00000000000001
vertex 50.0 6.57712014026543e-34 7.00000000000001
endloop
endfacet
facet normal 0.0 0.0 1.0
outer loop
vertex 37.5 6.57712014026543e-34 3.0
vertex 33.0 9.99999999999999 3.0
vertex 33.0 6.57712014026543e-34 3.0
endloop
endfacet
facet normal 0.0 0.0 1.0
outer loop
vertex 33.0 9.99999999999999 3.0
vertex 37.5 6.57712014026543e-34 3.0
vertex 37.5 9.99999999999999 3.0
endloop
endfacet
facet normal 0.0 -1.0 0.0
outer loop
vertex 37.5 9.99999999999999 7.00000000000001
vertex 33.0 9.99999999999999 3.0
vertex 37.5 9.99999999999999 3.0
endloop
endfacet
facet normal 0.0 -1.0 0.0
outer loop
vertex 33.0 9.99999999999999 3.0
vertex 37.5 9.99999999999999 7.00000000000001
vertex 33.0 9.99999999999999 7.00000000000001
endloop
endfacet
facet normal 1.0 0.0 0.0
outer loop
vertex 50.0 12.0 0.0
vertex 50.0 6.57712014026543e-34 7.00000000000001
vertex 50.0 0.0 0.0
endloop
endfacet
facet normal 1.0 0.0 0.0
outer loop
vertex 50.0 6.57712014026543e-34 7.00000000000001
vertex 50.0 12.0 0.0
vertex 50.0 12.0 7.00000000000001
endloop
endfacet
facet normal -1.0 0.0 0.0
outer loop
vertex 18.0 9.99999999999999 7.00000000000001
vertex 18.0 6.57712014026543e-34 3.0
vertex 18.0 6.57712014026543e-34 7.00000000000001
endloop
endfacet
facet normal -1.0 0.0 0.0
outer loop
vertex 18.0 6.57712014026543e-34 3.0
vertex 18.0 9.99999999999999 7.00000000000001
vertex 18.0 9.99999999999999 3.0
endloop
endfacet
facet normal 1.0 0.0 0.0
outer loop
vertex 13.5 9.99999999999999 3.0
vertex 13.5 6.57712014026543e-34 7.00000000000001
vertex 13.5 6.57712014026543e-34 3.0
endloop
endfacet
facet normal 1.0 0.0 0.0
outer loop
vertex 13.5 6.57712014026543e-34 7.00000000000001
vertex 13.5 9.99999999999999 3.0
vertex 13.5 9.99999999999999 7.00000000000001
endloop
endfacet
facet normal -1.0 -9.18244026687036e-21 4.8798111132511e-19
outer loop
vertex 3.30567849607333e-18 12.0 7.0
vertex 2.33889871368998e-18 4.75 4.75
vertex 3.52605706247821e-18 5.84632901356927e-34 7.0
endloop
endfacet
facet normal -1.0 -9.18244026687036e-21 4.8798111132511e-19
outer loop
vertex 2.33889871368998e-18 4.75 4.75
vertex 3.30567849607333e-18 12.0 7.0
vertex 2.3303721620136e-18 7.25 4.75
endloop
endfacet
facet normal -1.0 -9.18244026687036e-21 4.8798111132511e-19
outer loop
vertex 2.3303721620136e-18 7.25 4.75
vertex 3.30567849607333e-18 12.0 7.0
vertex 1.1189459353772e-18 7.25 2.25
endloop
endfacet
facet normal -1.0 -9.18244026687036e-21 4.8798111132511e-19
outer loop
vertex 0.0 0.0 0.0
vertex 1.19568490046462e-18 4.75 2.25
vertex 0.0 12.0 0.0
endloop
endfacet
facet normal -1.0 -9.18244026687036e-21 4.8798111132511e-19
outer loop
vertex 1.19568490046462e-18 4.75 2.25
vertex 0.0 0.0 0.0
vertex 3.52605706247821e-18 5.84632901356927e-34 7.0
endloop
endfacet
facet normal -1.0 -9.18244026687036e-21 4.8798111132511e-19
outer loop
vertex 1.19568490046462e-18 4.75 2.25
vertex 3.52605706247821e-18 5.84632901356927e-34 7.0
vertex 2.33889871368998e-18 4.75 4.75
endloop
endfacet
facet normal -1.0 -9.18244026687036e-21 4.8798111132511e-19
outer loop
vertex 0.0 12.0 0.0
vertex 1.19568490046462e-18 4.75 2.25
vertex 1.1189459353772e-18 7.25 2.25
endloop
endfacet
facet normal -1.0 -9.18244026687036e-21 4.8798111132511e-19
outer loop
vertex 0.0 12.0 0.0
vertex 1.1189459353772e-18 7.25 2.25
vertex 3.30567849607333e-18 12.0 7.0
endloop
endfacet
facet normal -2.46747067222941e-17 6.05266741937891e-33 -1.0
outer loop
vertex 50.0 12.0 0.0
vertex 0.0 0.0 0.0
vertex 0.0 12.0 0.0
endloop
endfacet
facet normal -2.46747067222941e-17 6.05266741937891e-33 -1.0
outer loop
vertex 0.0 0.0 0.0
vertex 50.0 12.0 0.0
vertex 50.0 0.0 0.0
endloop
endfacet
facet normal -1.0 -1.70531033527594e-20 4.70928007972351e-19
outer loop
vertex 10.0 7.25 4.75
vertex 10.0 4.75 2.25
vertex 10.0 4.75 4.75
endloop
endfacet
facet normal -1.0 -1.70531033527594e-20 4.70928007972351e-19
outer loop
vertex 10.0 4.75 2.25
vertex 10.0 7.25 4.75
vertex 10.0 7.25 2.25
endloop
endfacet
facet normal -1.70531033527594e-20 1.0 7.7399756577017e-39
outer loop
vertex 2.33889871368998e-18 4.75 4.75
vertex 10.0 4.75 2.25
vertex 1.19568490046462e-18 4.75 2.25
endloop
endfacet
facet normal -1.70531033527594e-20 1.0 7.7399756577017e-39
outer loop
vertex 10.0 4.75 2.25
vertex 2.33889871368998e-18 4.75 4.75
vertex 10.0 4.75 4.75
endloop
endfacet
facet normal -4.70928007972351e-19 0.0 -1.0
outer loop
vertex 10.0 7.25 4.75
vertex 2.33889871368998e-18 4.75 4.75
vertex 2.3303721620136e-18 7.25 4.75
endloop
endfacet
facet normal -4.70928007972351e-19 0.0 -1.0
outer loop
vertex 2.33889871368998e-18 4.75 4.75
vertex 10.0 7.25 4.75
vertex 10.0 4.75 4.75
endloop
endfacet
facet normal 1.70531033527594e-20 -1.0 -8.32159232562149e-39
outer loop
vertex 10.0 7.25 4.75
vertex 1.1189459353772e-18 7.25 2.25
vertex 10.0 7.25 2.25
endloop
endfacet
facet normal 1.70531033527594e-20 -1.0 -8.32159232562149e-39
outer loop
vertex 1.1189459353772e-18 7.25 2.25
vertex 10.0 7.25 4.75
vertex 2.3303721620136e-18 7.25 4.75
endloop
endfacet
facet normal 4.70928007972351e-19 1.60615679833232e-38 1.0
outer loop
vertex 1.19568490046462e-18 4.75 2.25
vertex 10.0 7.25 2.25
vertex 1.1189459353772e-18 7.25 2.25
endloop
endfacet
facet normal 4.70928007972351e-19 1.60615679833232e-38 1.0
outer loop
vertex 10.0 7.25 2.25
vertex 1.19568490046462e-18 4.75 2.25
vertex 10.0 4.75 2.25
endloop
endfacet
endsolid rod with screw hole
