solid untitled
facet normal 0.0 0.0 -1.0
outer loop
vertex 11.0 11.0 -10.0
vertex 0.0 0.0 -10.0
vertex 0.0 11.0 -10.0
endloop
endfacet
facet normal 0.0 0.0 -1.0
outer loop
vertex 0.0 0.0 -10.0
vertex 11.0 11.0 -10.0
vertex 11.0 0.0 -10.0
endloop
endfacet
facet normal -0.0 -0.0 1.0
outer loop
vertex 0.0 0.0 30.0
vertex 3.0 3.0 30.0
vertex 0.0 11.0 30.0
endloop
endfacet
facet normal -0.0 -0.0 1.0
outer loop
vertex 3.0 3.0 30.0
vertex 0.0 0.0 30.0
vertex 11.0 0.0 30.0
endloop
endfacet
facet normal -0.0 -0.0 1.0
outer loop
vertex 3.0 3.0 30.0
vertex 11.0 0.0 30.0
vertex 8.0 3.0 30.0
endloop
endfacet
facet normal -0.0 -0.0 1.0
outer loop
vertex 8.0 3.0 30.0
vertex 11.0 0.0 30.0
vertex 8.0 8.0 30.0
endloop
endfacet
facet normal -0.0 -0.0 1.0
outer loop
vertex 0.0 11.0 30.0
vertex 3.0 8.0 30.0
vertex 11.0 11.0 30.0
endloop
endfacet
facet normal -0.0 -0.0 1.0
outer loop
vertex 3.0 8.0 30.0
vertex 0.0 11.0 30.0
vertex 3.0 3.0 30.0
endloop
endfacet
facet normal -0.0 -0.0 1.0
outer loop
vertex 11.0 11.0 30.0
vertex 3.0 8.0 30.0
vertex 8.0 8.0 30.0
endloop
endfacet
facet normal -0.0 -0.0 1.0
outer loop
vertex 11.0 11.0 30.0
vertex 8.0 8.0 30.0
vertex 11.0 0.0 30.0
endloop
endfacet
facet normal 1.0 0.0 0.0
outer loop
vertex 11.0 11.0 -10.0
vertex 11.0 0.0 30.0
vertex 11.0 0.0 -10.0
endloop
endfacet
facet normal 1.0 0.0 0.0
outer loop
vertex 11.0 0.0 30.0
vertex 11.0 11.0 -10.0
vertex 11.0 11.0 30.0
endloop
endfacet
facet normal -0.0 -1.0 -0.0
outer loop
vertex 11.0 0.0 30.0
vertex 0.0 0.0 -10.0
vertex 11.0 0.0 -10.0
endloop
endfacet
facet normal -0.0 -1.0 -0.0
outer loop
vertex 0.0 0.0 -10.0
vertex 11.0 0.0 30.0
vertex 0.0 0.0 30.0
endloop
endfacet
facet normal -1.0 0.0 0.0
outer loop
vertex 0.0 11.0 30.0
vertex 0.0 0.0 -10.0
vertex 0.0 0.0 30.0
endloop
endfacet
facet normal -1.0 0.0 0.0
outer loop
vertex 0.0 0.0 -10.0
vertex 0.0 11.0 30.0
vertex 0.0 11.0 -10.0
endloop
endfacet
facet normal -0.0 1.0 0.0
outer loop
vertex 0.0 11.0 30.0
vertex 11.0 11.0 -10.0
vertex 0.0 11.0 -10.0
endloop
endfacet
facet normal -0.0 1.0 0.0
outer loop
vertex 11.0 11.0 -10.0
vertex 0.0 11.0 30.0
vertex 11.0 11.0 30.0
endloop
endfacet
facet normal 0.0 0.0 1.0
outer loop
vertex 8.0 3.0 50.0
vertex 3.0 8.0 50.0
vertex 3.0 3.0 50.0
endloop
endfacet
facet normal 0.0 0.0 1.0
outer loop
vertex 3.0 8.0 50.0
vertex 8.0 3.0 50.0
vertex 8.0 8.0 50.0
endloop
endfacet
facet normal -1.0 -0.0 -0.0
outer loop
vertex 3.0 8.0 50.0
vertex 3.0 3.0 30.0
vertex 3.0 3.0 50.0
endloop
endfacet
facet normal -1.0 -0.0 -0.0
outer loop
vertex 3.0 3.0 30.0
vertex 3.0 8.0 50.0
vertex 3.0 8.0 30.0
endloop
endfacet
facet normal 0.0 -1.0 0.0
outer loop
vertex 8.0 3.0 50.0
vertex 3.0 3.0 30.0
vertex 8.0 3.0 30.0
endloop
endfacet
facet normal 0.0 -1.0 0.0
outer loop
vertex 3.0 3.0 30.0
vertex 8.0 3.0 50.0
vertex 3.0 3.0 50.0
endloop
endfacet
facet normal 1.0 -0.0 0.0
outer loop
vertex 8.0 8.0 30.0
vertex 8.0 3.0 50.0
vertex 8.0 3.0 30.0
endloop
endfacet
facet normal 1.0 -0.0 0.0
outer loop
vertex 8.0 3.0 50.0
vertex 8.0 8.0 30.0
vertex 8.0 8.0 50.0
endloop
endfacet
facet normal 0.0 1.0 0.0
outer loop
vertex 3.0 8.0 50.0
vertex 8.0 8.0 30.0
vertex 3.0 8.0 30.0
endloop
endfacet
facet normal 0.0 1.0 0.0
outer loop
vertex 8.0 8.0 30.0
vertex 3.0 8.0 50.0
vertex 8.0 8.0 50.0
endloop
endfacet
endsolid untitled
